<mxfile host="Electron" modified="2023-07-21T18:53:27.851Z" agent="Mozilla/5.0 (X11; Linux x86_64) AppleWebKit/537.36 (KHTML, like Gecko) draw.io/21.6.1 Chrome/112.0.5615.204 Electron/24.6.1 Safari/537.36" etag="o80L2qysQee_8nPQAhx9" version="21.6.1" type="device">
  <diagram name="Page-1" id="fo5acYU9oirqmaVJ-L3K">
    <mxGraphModel dx="8138" dy="2040" grid="1" gridSize="10" guides="1" tooltips="1" connect="1" arrows="1" fold="1" page="1" pageScale="1" pageWidth="4681" pageHeight="3300" math="0" shadow="0">
      <root>
        <mxCell id="0" />
        <mxCell id="1" parent="0" />
        <mxCell id="LKMU_nn0iRrz3Z-2fcly-2" value="Clojure Local" style="swimlane;horizontal=0;whiteSpace=wrap;html=1;" vertex="1" parent="1">
          <mxGeometry x="170" y="430" width="400" height="550" as="geometry" />
        </mxCell>
        <mxCell id="LKMU_nn0iRrz3Z-2fcly-5" value="JVM" style="swimlane;whiteSpace=wrap;html=1;fillColor=#dae8fc;strokeColor=#6c8ebf;" vertex="1" parent="LKMU_nn0iRrz3Z-2fcly-2">
          <mxGeometry x="75" y="30" width="250" height="480" as="geometry" />
        </mxCell>
        <mxCell id="LKMU_nn0iRrz3Z-2fcly-8" style="edgeStyle=orthogonalEdgeStyle;rounded=0;orthogonalLoop=1;jettySize=auto;html=1;entryX=0.5;entryY=0;entryDx=0;entryDy=0;" edge="1" parent="LKMU_nn0iRrz3Z-2fcly-5" source="LKMU_nn0iRrz3Z-2fcly-6" target="LKMU_nn0iRrz3Z-2fcly-7">
          <mxGeometry relative="1" as="geometry" />
        </mxCell>
        <mxCell id="LKMU_nn0iRrz3Z-2fcly-6" value="Debugger UI" style="rounded=0;whiteSpace=wrap;html=1;fillColor=#d5e8d4;strokeColor=#82b366;" vertex="1" parent="LKMU_nn0iRrz3Z-2fcly-5">
          <mxGeometry x="40" y="50" width="160" height="60" as="geometry" />
        </mxCell>
        <mxCell id="LKMU_nn0iRrz3Z-2fcly-7" value="Runtime (timelines)" style="rounded=0;whiteSpace=wrap;html=1;fillColor=#f8cecc;strokeColor=#b85450;" vertex="1" parent="LKMU_nn0iRrz3Z-2fcly-5">
          <mxGeometry x="40" y="390" width="160" height="60" as="geometry" />
        </mxCell>
        <mxCell id="LKMU_nn0iRrz3Z-2fcly-3" value="Clojure Remote" style="swimlane;horizontal=0;whiteSpace=wrap;html=1;" vertex="1" parent="1">
          <mxGeometry x="640" y="430" width="400" height="550" as="geometry" />
        </mxCell>
        <mxCell id="LKMU_nn0iRrz3Z-2fcly-9" value="JVM-1" style="swimlane;whiteSpace=wrap;html=1;fillColor=#dae8fc;strokeColor=#6c8ebf;" vertex="1" parent="LKMU_nn0iRrz3Z-2fcly-3">
          <mxGeometry x="85" y="30" width="250" height="130" as="geometry" />
        </mxCell>
        <mxCell id="LKMU_nn0iRrz3Z-2fcly-10" value="Debugger UI" style="rounded=0;whiteSpace=wrap;html=1;fillColor=#d5e8d4;strokeColor=#82b366;" vertex="1" parent="LKMU_nn0iRrz3Z-2fcly-9">
          <mxGeometry x="40" y="40" width="160" height="60" as="geometry" />
        </mxCell>
        <mxCell id="LKMU_nn0iRrz3Z-2fcly-11" value="JVM-2" style="swimlane;whiteSpace=wrap;html=1;fillColor=#dae8fc;strokeColor=#6c8ebf;" vertex="1" parent="LKMU_nn0iRrz3Z-2fcly-3">
          <mxGeometry x="85" y="310" width="250" height="200" as="geometry" />
        </mxCell>
        <mxCell id="LKMU_nn0iRrz3Z-2fcly-35" style="edgeStyle=orthogonalEdgeStyle;rounded=0;orthogonalLoop=1;jettySize=auto;html=1;entryX=0.25;entryY=0;entryDx=0;entryDy=0;" edge="1" parent="LKMU_nn0iRrz3Z-2fcly-11" source="LKMU_nn0iRrz3Z-2fcly-12" target="LKMU_nn0iRrz3Z-2fcly-19">
          <mxGeometry relative="1" as="geometry" />
        </mxCell>
        <mxCell id="LKMU_nn0iRrz3Z-2fcly-12" value="REPL" style="rounded=0;whiteSpace=wrap;html=1;" vertex="1" parent="LKMU_nn0iRrz3Z-2fcly-11">
          <mxGeometry x="20" y="40" width="100" height="60" as="geometry" />
        </mxCell>
        <mxCell id="LKMU_nn0iRrz3Z-2fcly-36" style="edgeStyle=orthogonalEdgeStyle;rounded=0;orthogonalLoop=1;jettySize=auto;html=1;entryX=0.75;entryY=0;entryDx=0;entryDy=0;" edge="1" parent="LKMU_nn0iRrz3Z-2fcly-11" source="LKMU_nn0iRrz3Z-2fcly-18" target="LKMU_nn0iRrz3Z-2fcly-19">
          <mxGeometry relative="1" as="geometry" />
        </mxCell>
        <mxCell id="LKMU_nn0iRrz3Z-2fcly-18" value="WebSocket" style="rounded=0;whiteSpace=wrap;html=1;" vertex="1" parent="LKMU_nn0iRrz3Z-2fcly-11">
          <mxGeometry x="135" y="40" width="100" height="60" as="geometry" />
        </mxCell>
        <mxCell id="LKMU_nn0iRrz3Z-2fcly-19" value="Runtime (timelines)" style="rounded=0;whiteSpace=wrap;html=1;fillColor=#f8cecc;strokeColor=#b85450;" vertex="1" parent="LKMU_nn0iRrz3Z-2fcly-11">
          <mxGeometry x="20" y="120" width="210" height="60" as="geometry" />
        </mxCell>
        <mxCell id="LKMU_nn0iRrz3Z-2fcly-20" style="edgeStyle=orthogonalEdgeStyle;rounded=0;orthogonalLoop=1;jettySize=auto;html=1;entryX=0.5;entryY=0;entryDx=0;entryDy=0;" edge="1" parent="LKMU_nn0iRrz3Z-2fcly-3" source="LKMU_nn0iRrz3Z-2fcly-10" target="LKMU_nn0iRrz3Z-2fcly-12">
          <mxGeometry relative="1" as="geometry" />
        </mxCell>
        <mxCell id="LKMU_nn0iRrz3Z-2fcly-21" style="edgeStyle=orthogonalEdgeStyle;rounded=0;orthogonalLoop=1;jettySize=auto;html=1;entryX=0.5;entryY=0;entryDx=0;entryDy=0;startArrow=classic;startFill=1;" edge="1" parent="LKMU_nn0iRrz3Z-2fcly-3" source="LKMU_nn0iRrz3Z-2fcly-10" target="LKMU_nn0iRrz3Z-2fcly-18">
          <mxGeometry relative="1" as="geometry">
            <Array as="points">
              <mxPoint x="250" y="240" />
              <mxPoint x="270" y="240" />
            </Array>
          </mxGeometry>
        </mxCell>
        <mxCell id="LKMU_nn0iRrz3Z-2fcly-4" value="ClojureScript" style="swimlane;horizontal=0;whiteSpace=wrap;html=1;" vertex="1" parent="1">
          <mxGeometry x="1110" y="430" width="400" height="560" as="geometry" />
        </mxCell>
        <mxCell id="LKMU_nn0iRrz3Z-2fcly-22" value="JVM-1" style="swimlane;whiteSpace=wrap;html=1;fillColor=#dae8fc;strokeColor=#6c8ebf;" vertex="1" parent="LKMU_nn0iRrz3Z-2fcly-4">
          <mxGeometry x="80" y="30" width="250" height="130" as="geometry" />
        </mxCell>
        <mxCell id="LKMU_nn0iRrz3Z-2fcly-23" value="Debugger UI" style="rounded=0;whiteSpace=wrap;html=1;fillColor=#d5e8d4;strokeColor=#82b366;" vertex="1" parent="LKMU_nn0iRrz3Z-2fcly-22">
          <mxGeometry x="40" y="40" width="160" height="60" as="geometry" />
        </mxCell>
        <mxCell id="LKMU_nn0iRrz3Z-2fcly-24" value="JVM-2" style="swimlane;whiteSpace=wrap;html=1;fillColor=#dae8fc;strokeColor=#6c8ebf;" vertex="1" parent="LKMU_nn0iRrz3Z-2fcly-4">
          <mxGeometry x="80" y="190" width="250" height="130" as="geometry" />
        </mxCell>
        <mxCell id="LKMU_nn0iRrz3Z-2fcly-25" value="Shadow CLJ REPL" style="rounded=0;whiteSpace=wrap;html=1;" vertex="1" parent="LKMU_nn0iRrz3Z-2fcly-24">
          <mxGeometry x="10" y="40" width="160" height="60" as="geometry" />
        </mxCell>
        <mxCell id="LKMU_nn0iRrz3Z-2fcly-26" value="Browser" style="swimlane;whiteSpace=wrap;html=1;fillColor=#ffe6cc;strokeColor=#d79b00;" vertex="1" parent="LKMU_nn0iRrz3Z-2fcly-4">
          <mxGeometry x="80" y="340" width="250" height="170" as="geometry" />
        </mxCell>
        <mxCell id="LKMU_nn0iRrz3Z-2fcly-34" style="edgeStyle=orthogonalEdgeStyle;rounded=0;orthogonalLoop=1;jettySize=auto;html=1;entryX=0.905;entryY=0;entryDx=0;entryDy=0;entryPerimeter=0;" edge="1" parent="LKMU_nn0iRrz3Z-2fcly-26" source="LKMU_nn0iRrz3Z-2fcly-28" target="LKMU_nn0iRrz3Z-2fcly-29">
          <mxGeometry relative="1" as="geometry" />
        </mxCell>
        <mxCell id="LKMU_nn0iRrz3Z-2fcly-28" value="WebSocket" style="rounded=0;whiteSpace=wrap;html=1;" vertex="1" parent="LKMU_nn0iRrz3Z-2fcly-26">
          <mxGeometry x="140" y="30" width="100" height="40" as="geometry" />
        </mxCell>
        <mxCell id="LKMU_nn0iRrz3Z-2fcly-29" value="Runtime (timelines)" style="rounded=0;whiteSpace=wrap;html=1;fillColor=#f8cecc;strokeColor=#b85450;" vertex="1" parent="LKMU_nn0iRrz3Z-2fcly-26">
          <mxGeometry x="20" y="100" width="190" height="60" as="geometry" />
        </mxCell>
        <mxCell id="LKMU_nn0iRrz3Z-2fcly-30" style="edgeStyle=orthogonalEdgeStyle;rounded=0;orthogonalLoop=1;jettySize=auto;html=1;exitX=0.5;exitY=1;exitDx=0;exitDy=0;" edge="1" parent="LKMU_nn0iRrz3Z-2fcly-4" source="LKMU_nn0iRrz3Z-2fcly-23" target="LKMU_nn0iRrz3Z-2fcly-25">
          <mxGeometry relative="1" as="geometry" />
        </mxCell>
        <mxCell id="LKMU_nn0iRrz3Z-2fcly-31" style="edgeStyle=orthogonalEdgeStyle;rounded=0;orthogonalLoop=1;jettySize=auto;html=1;startArrow=classic;startFill=1;" edge="1" parent="LKMU_nn0iRrz3Z-2fcly-4" source="LKMU_nn0iRrz3Z-2fcly-23" target="LKMU_nn0iRrz3Z-2fcly-28">
          <mxGeometry relative="1" as="geometry">
            <Array as="points">
              <mxPoint x="270" y="210" />
              <mxPoint x="270" y="210" />
            </Array>
          </mxGeometry>
        </mxCell>
        <mxCell id="LKMU_nn0iRrz3Z-2fcly-32" style="edgeStyle=orthogonalEdgeStyle;rounded=0;orthogonalLoop=1;jettySize=auto;html=1;entryX=0.25;entryY=0;entryDx=0;entryDy=0;" edge="1" parent="LKMU_nn0iRrz3Z-2fcly-4" source="LKMU_nn0iRrz3Z-2fcly-25" target="LKMU_nn0iRrz3Z-2fcly-29">
          <mxGeometry relative="1" as="geometry">
            <Array as="points">
              <mxPoint x="150" y="380" />
              <mxPoint x="148" y="380" />
            </Array>
          </mxGeometry>
        </mxCell>
        <mxCell id="LKMU_nn0iRrz3Z-2fcly-33" value="&lt;font size=&quot;1&quot; style=&quot;&quot;&gt;&lt;b style=&quot;font-size: 24px;&quot;&gt;Different configurations FlowStorm can be run in&lt;/b&gt;&lt;/font&gt;" style="text;html=1;strokeColor=none;fillColor=none;align=center;verticalAlign=middle;whiteSpace=wrap;rounded=0;" vertex="1" parent="1">
          <mxGeometry x="525" y="280" width="630" height="80" as="geometry" />
        </mxCell>
        <mxCell id="LKMU_nn0iRrz3Z-2fcly-37" value="" style="swimlane;startSize=0;" vertex="1" parent="1">
          <mxGeometry x="-170" y="200" width="2060" height="980" as="geometry" />
        </mxCell>
      </root>
    </mxGraphModel>
  </diagram>
</mxfile>
